<?xml version="1.0" standalone="no"?>
<!DOCTYPE svg PUBLIC "-//W3C//DTD SVG 20010904//EN"
 "http://www.w3.org/TR/2001/REC-SVG-20010904/DTD/svg10.dtd">
<svg version="1.0" xmlns="http://www.w3.org/2000/svg"
 width="372.000000pt" height="316.000000pt" viewBox="0 0 372.000000 316.000000"
 preserveAspectRatio="xMidYMid meet">

<g transform="translate(0.000000,316.000000) scale(0.100000,-0.100000)"
fill="#000000" stroke="none">
<path d="M0 2781 l0 -379 66 -7 c44 -4 67 -12 71 -22 3 -8 -1 -42 -9 -76 l-15
-62 -56 3 -57 4 0 -129 c0 -70 5 -242 12 -382 9 -199 9 -256 0 -259 -9 -3 -12
-50 -12 -174 l0 -170 33 7 c17 4 55 15 82 26 28 10 86 31 130 47 70 26 80 33
86 58 11 49 50 125 60 118 6 -3 8 -12 5 -20 -3 -8 -1 -14 4 -14 6 0 10 -7 10
-15 0 -8 9 -19 20 -25 11 -6 20 -20 20 -32 0 -18 4 -20 32 -14 30 6 31 5 14
-13 -9 -10 -20 -35 -23 -55 -3 -20 -10 -39 -14 -42 -12 -7 -11 29 1 61 l10 27
-55 -31 c-31 -18 -69 -31 -89 -31 -67 0 -96 -11 -96 -35 0 -13 8 -26 17 -30
17 -7 16 -8 -2 -15 -11 -5 -14 -9 -7 -9 6 -1 12 -10 12 -22 0 -11 11 -35 24
-52 13 -18 40 -66 60 -108 24 -51 43 -79 61 -87 14 -6 25 -19 25 -27 0 -9 23
-66 51 -128 28 -62 66 -149 83 -194 32 -82 32 -82 161 -193 l129 -110 56 0
c30 0 83 -6 117 -13 l62 -13 6 27 6 27 35 -35 c38 -37 61 -38 27 0 -41 44 -46
64 -29 115 19 59 23 93 13 110 -6 8 -1 12 17 12 33 0 34 18 1 26 -21 5 -22 8
-10 20 7 8 17 33 20 57 6 41 2 117 -6 118 -2 1 -16 -5 -32 -12 -21 -9 -30 -10
-39 -1 -9 9 -8 12 4 12 16 0 87 75 89 94 4 50 49 266 60 286 5 9 6 -9 2 -40
-3 -30 -3 -53 0 -50 8 8 47 113 47 128 0 7 13 30 28 50 16 20 37 60 47 87 10
28 30 74 43 104 22 47 26 51 35 35 6 -11 12 -25 13 -32 3 -17 -2 -14 66 -36
36 -12 71 -17 97 -13 24 3 39 1 35 -4 -3 -5 1 -9 9 -9 8 0 42 -15 75 -34 33
-19 75 -37 94 -41 64 -12 87 -26 91 -53 3 -21 4 -19 6 9 1 30 -3 38 -21 43
l-23 7 23 11 c22 11 23 15 16 80 -9 95 -25 153 -18 68 3 -36 7 -77 10 -93 6
-27 5 -27 -49 -27 -45 0 -72 9 -164 54 -104 51 -205 127 -189 143 3 4 12 1 18
-5 16 -16 50 -15 74 3 10 8 15 15 9 15 -5 0 -16 4 -24 9 -12 8 -9 15 13 42 26
30 27 37 24 116 -2 46 0 83 5 83 4 0 7 -13 7 -30 0 -16 4 -30 10 -30 5 0 11
-41 12 -91 l3 -90 50 -21 c28 -11 64 -27 82 -34 33 -15 53 -18 53 -8 0 3 -9
66 -21 141 -19 130 -20 135 -2 148 15 12 19 11 25 -3 4 -11 7 -5 7 17 1 33 0
33 -22 18 -18 -11 -34 -13 -68 -7 -24 5 -46 6 -48 4 -2 -2 -13 3 -23 12 -15
14 -20 15 -34 4 -13 -12 -17 -11 -25 1 -16 25 -10 67 16 105 18 27 25 51 26
88 l1 51 15 -35 c22 -48 33 -109 26 -143 l-6 -28 -27 26 c-28 27 -40 24 -40
-7 0 -14 5 -18 18 -14 12 4 20 -1 27 -17 14 -31 108 -44 140 -19 l21 17 -27
140 c-16 77 -29 152 -31 168 -2 19 -8 27 -22 27 -11 0 -35 14 -53 32 l-33 32
6 -76 c6 -68 5 -77 -12 -88 -15 -9 -18 -21 -16 -49 4 -36 -19 -78 -36 -67 -4
2 -7 -12 -8 -32 -1 -109 -29 -135 -30 -30 -1 97 -7 134 -23 130 -9 -2 -11 3
-8 13 5 10 0 15 -14 15 -11 0 -18 -4 -15 -9 8 -12 -18 -21 -33 -12 -6 4 -14
31 -18 61 -5 43 -3 52 8 48 8 -2 15 -16 17 -31 3 -25 5 -24 48 28 47 59 53 71
28 61 -11 -4 -10 2 6 24 22 30 40 39 40 19 0 -6 7 -17 15 -25 19 -20 19 -60 0
-68 -8 -3 -15 -1 -15 5 0 6 -4 8 -10 4 -13 -8 -1 -35 16 -35 8 0 14 6 14 13 0
8 4 7 10 -3 20 -31 10 65 -10 97 -20 34 -15 76 11 85 9 3 9 10 -1 28 -8 14
-14 36 -15 50 -1 14 -5 38 -9 53 -5 17 -4 33 2 39 7 7 4 25 -10 57 -12 25 -20
57 -19 69 0 13 -10 46 -23 73 -13 27 -20 52 -15 55 11 7 -8 54 -33 81 -13 14
-19 30 -15 43 4 16 0 20 -21 21 -24 0 -25 1 -7 9 32 14 45 11 46 -7 2 -26 38
87 38 120 1 15 6 27 11 27 10 0 8 -146 -2 -190 -1 -8 2 -16 7 -17 6 -1 9 7 7
17 -2 11 2 20 7 20 6 0 11 8 11 18 0 14 2 15 10 2 7 -11 10 -7 10 19 0 27 -3
31 -14 22 -11 -9 -14 -2 -14 41 0 29 -3 70 -5 90 -3 21 -1 35 4 32 5 -3 10
-20 10 -37 1 -28 3 -25 14 18 12 49 12 50 20 20 5 -16 12 -32 16 -35 4 -3 16
-41 27 -85 19 -78 16 -123 -7 -117 -6 1 -11 -3 -11 -9 0 -5 -4 -8 -9 -5 -17
11 -28 -19 -23 -61 2 -24 8 -43 13 -43 4 0 6 -7 3 -15 -7 -18 -34 -20 -35 -2
-1 25 -8 49 -15 55 -4 4 -4 -9 -1 -28 6 -31 5 -33 -7 -17 -9 12 -16 14 -21 8
-3 -6 -1 -11 4 -11 6 0 11 -9 11 -20 0 -11 5 -19 12 -17 12 2 15 -12 19 -75 3
-37 16 -35 24 2 5 24 11 29 25 25 15 -5 18 0 16 32 -1 21 -6 50 -10 64 -7 23
-5 26 16 24 13 -1 25 -3 27 -4 2 0 -4 -12 -13 -26 -10 -15 -12 -25 -6 -25 6 0
8 -4 5 -10 -3 -5 -2 -10 3 -10 5 0 7 -12 4 -27 -4 -23 -2 -25 14 -19 16 6 15
4 -4 -14 -19 -18 -26 -19 -38 -9 -21 18 -24 9 -12 -44 6 -28 17 -51 29 -57 16
-9 18 -19 12 -89 -9 -121 9 -165 42 -101 14 27 14 30 0 30 -16 0 -21 53 -8 98
8 31 23 9 23 -33 0 -37 9 -50 38 -57 27 -7 28 6 2 39 -24 31 -20 52 23 107
l31 39 12 -28 c8 -21 13 -24 20 -14 12 20 13 640 1 632 -7 -4 -8 8 -3 33 3 21
9 58 13 82 l6 42 -104 -2 -103 -3 -13 -40 -13 -40 6 43 c7 54 -11 56 -32 3
-18 -46 -54 -63 -54 -25 0 13 -5 24 -11 24 -6 0 -8 9 -4 20 6 18 2 20 -44 20
-34 0 -51 -4 -51 -12 0 -9 -2 -10 -8 -2 -4 7 -26 12 -49 12 -38 1 -43 -2 -43
-22 0 -12 -6 -28 -12 -35 -11 -10 -10 -11 5 -6 13 6 17 2 17 -16 l0 -24 18 23
c17 22 32 21 32 -2 0 -6 -5 -4 -10 4 -8 12 -10 9 -10 -12 0 -32 -37 -59 -50
-37 -5 7 -6 18 -3 25 2 6 0 15 -6 19 -6 3 -11 24 -11 46 0 38 -2 40 -27 37
-16 -2 -27 -7 -26 -13 1 -5 4 -28 8 -50 6 -31 5 -37 -5 -29 -6 6 -14 30 -17
53 -5 38 -8 41 -37 41 -29 -1 -30 -2 -12 -15 16 -12 17 -17 6 -30 -16 -19 -36
-19 -44 1 -9 22 -8 26 5 18 7 -4 10 -1 7 7 -3 10 -26 15 -76 17 -59 2 -72 0
-72 -13 0 -8 -9 -15 -20 -15 -13 0 -18 5 -14 15 10 26 -39 17 -59 -10 -28 -38
-32 -80 -10 -96 21 -16 39 -64 49 -132 5 -38 3 -52 -11 -67 -9 -10 -14 -23
-10 -29 3 -7 0 -8 -9 -5 -11 4 -16 0 -16 -11 0 -9 4 -13 10 -10 6 3 7 -1 4 -9
-4 -10 -1 -16 7 -16 10 -1 9 -5 -3 -14 -24 -18 -23 -29 1 -17 26 14 51 132 50
239 0 45 3 86 6 91 3 5 0 11 -6 13 -7 2 -9 13 -5 26 18 56 24 9 19 -150 -2
-95 -1 -201 5 -235 5 -35 5 -63 0 -63 -4 0 -8 14 -8 31 0 17 -4 28 -10 24 -5
-3 -10 -14 -10 -25 0 -13 -5 -17 -20 -13 -11 3 -23 10 -27 16 -3 6 -1 7 5 3 7
-4 12 -1 12 9 0 14 -3 14 -30 0 -25 -13 -38 -14 -71 -5 -36 10 -41 14 -36 36
6 32 -9 31 -17 -1 -6 -24 -10 -25 -75 -25 -106 0 -101 -7 -102 139 0 75 -4
118 -8 106 -10 -23 -38 -49 -62 -58 -14 -5 -16 1 -13 40 3 25 0 51 -5 57 -13
15 -18 135 -7 159 8 16 -9 17 -288 17 l-296 0 0 -379z m1138 305 c2 -14 -1
-26 -7 -26 -6 0 -8 6 -5 14 3 9 -3 20 -15 28 -12 7 -21 19 -21 27 0 25 45 -14
48 -43z m52 18 c0 -8 -4 -12 -10 -9 -5 3 -10 13 -10 21 0 8 5 12 10 9 6 -3 10
-13 10 -21z m65 -24 c-3 -5 -14 -10 -23 -9 -14 0 -13 2 3 9 27 11 27 11 20 0z
m-66 -26 c0 16 4 27 7 23 4 -3 3 -23 -1 -44 -6 -32 -9 -35 -15 -18 -5 11 -8
31 -8 45 0 23 1 22 8 -5 l8 -30 1 29z m281 -24 c0 -5 -5 -10 -11 -10 -5 0 -7
5 -4 10 3 6 8 10 11 10 2 0 4 -4 4 -10z m-430 -7 c0 -10 -20 -40 -20 -31 0 3
-3 13 -6 22 -4 11 -1 16 10 16 9 0 16 -3 16 -7z m88 -25 c-2 -25 -8 -34 -25
-36 -19 -3 -23 1 -23 22 0 22 21 45 43 46 5 0 7 -15 5 -32z m382 -36 c-14 -27
-14 -27 -18 -3 -2 12 -1 35 3 50 l7 26 11 -23 c7 -16 7 -29 -3 -50z m-167 0
c12 -3 17 3 17 20 1 20 2 21 10 6 13 -21 -2 -63 -26 -72 -22 -9 -23 -7 -29 50
-3 31 -2 40 3 24 4 -14 16 -26 25 -28z m126 -24 c-1 -22 -3 -26 -6 -13 -3 11
-10 26 -15 33 -8 9 -6 12 6 12 12 0 16 -9 15 -32z m-223 -35 c-14 -20 -26 -47
-26 -58 1 -14 9 -6 26 25 29 53 22 20 -12 -53 l-24 -52 4 61 c2 44 9 70 26 93
31 45 37 31 6 -16z m294 26 c0 -5 -4 -9 -10 -9 -5 0 -10 7 -10 16 0 8 5 12 10
9 6 -3 10 -10 10 -16z m-410 -8 c0 -6 -4 -13 -10 -16 -5 -3 -10 -11 -10 -16 0
-6 5 -7 10 -4 6 3 10 -1 10 -9 0 -19 -43 -51 -49 -35 -2 6 3 16 10 21 11 7 11
11 2 15 -18 7 -16 24 5 39 20 16 32 18 32 5z m410 -32 c0 -11 -4 -17 -10 -14
-5 3 -10 13 -10 21 0 8 5 14 10 14 6 0 10 -9 10 -21z m-175 -39 c-3 -5 -10
-10 -16 -10 -5 0 -9 5 -9 10 0 6 7 10 16 10 8 0 12 -4 9 -10z m56 -9 c15 19
19 21 19 7 0 -10 -4 -18 -9 -18 -5 0 -18 -15 -30 -32 -22 -35 -29 -31 -10 4
10 18 9 20 -5 15 -9 -4 -16 -2 -16 3 0 6 5 10 10 10 6 0 11 8 11 18 1 10 4 7
6 -7 l5 -25 19 25z m96 -3 c-3 -8 -6 -5 -6 6 -1 11 2 17 5 13 3 -3 4 -12 1
-19z m-337 -72 c0 -54 -12 -38 -16 21 -2 32 0 43 6 33 6 -8 10 -33 10 -54z
m-40 30 c0 -14 -11 -38 -25 -53 l-24 -28 -1 33 c0 17 4 32 10 32 5 0 7 -8 3
-17 -4 -13 -1 -12 11 4 9 12 13 28 10 37 -3 9 -1 16 5 16 6 0 11 -11 11 -24z
m129 -13 c0 -29 -2 -33 -8 -18 -7 18 -4 55 5 55 2 0 4 -17 3 -37z m238 15 c-2
-7 -13 -12 -24 -10 -11 1 -26 -5 -34 -15 -12 -15 -12 -16 4 -10 20 8 21 0 2
-33 -22 -39 -18 -44 16 -15 38 32 46 27 25 -15 -15 -31 -15 -32 4 -27 27 7 67
-37 51 -57 -10 -12 -8 -22 13 -53 29 -41 35 -76 12 -67 -24 9 -27 -13 -6 -61
11 -26 20 -49 20 -51 0 -2 -13 -4 -28 -4 -15 0 -34 -6 -41 -12 -11 -11 -13 -9
-7 12 20 76 20 79 -8 86 -28 7 -32 23 -16 54 16 30 -7 34 -35 6 -14 -15 -28
-26 -30 -26 -3 0 -5 19 -6 43 l-1 42 -12 -46 c-7 -25 -16 -73 -20 -107 -6 -52
-4 -63 9 -68 13 -5 13 -9 3 -22 -11 -13 -11 -14 1 -8 8 5 17 3 22 -5 12 -19
11 -32 -1 -24 -13 8 -13 -7 1 -42 6 -15 10 -30 11 -33 0 -3 4 -11 10 -17 17
-21 27 -133 12 -133 -9 0 -12 12 -10 35 1 19 -1 35 -5 35 -4 0 -7 8 -7 18 1 9
-20 59 -46 111 -25 51 -44 101 -41 110 3 10 -9 31 -31 54 -20 20 -31 37 -25
37 6 0 8 6 5 14 -3 8 -11 13 -18 10 -14 -5 -42 23 -33 33 4 3 14 0 24 -8 11
-9 14 -10 9 -1 -4 6 -3 12 2 12 5 0 8 17 6 38 -2 20 -1 31 2 24 9 -21 24 -3
25 31 0 18 4 41 9 52 l9 20 1 -20 c0 -12 6 -5 15 20 19 52 19 54 -7 64 -13 5
-17 10 -11 14 20 13 43 -23 44 -66 l0 -42 13 48 c7 27 18 53 24 59 9 9 9 3 2
-23 -6 -18 -10 -43 -10 -54 0 -16 5 -13 21 14 15 24 17 36 9 41 -8 5 -2 14 17
28 31 24 67 29 60 10z m-893 -22 c-3 -8 0 -17 6 -21 8 -5 8 -11 -1 -21 -7 -9
-8 -14 -1 -14 5 0 8 -9 5 -21 -4 -16 -8 -17 -14 -7 -12 18 -11 98 1 98 5 0 7
-6 4 -14z m729 -41 c-3 -9 -8 -14 -10 -11 -3 3 -2 9 2 15 9 16 15 13 8 -4z
m-94 -68 c-12 -49 -21 -61 -54 -69 -18 -4 -21 0 -23 37 -1 29 4 47 15 56 15
13 16 10 9 -29 -6 -38 -4 -43 11 -40 10 2 23 21 32 50 18 60 26 56 10 -5z m44
-9 c4 -12 4 -24 2 -27 -3 -2 -5 2 -6 10 0 8 -4 6 -9 -6 -7 -17 -9 -15 -9 13
-1 36 14 43 22 10z m-833 -52 c0 -2 -7 -7 -16 -10 -8 -3 -12 -2 -9 4 6 10 25
14 25 6z m75 -45 c1 -10 -4 -18 -10 -18 -10 0 -13 24 -6 46 3 10 15 -11 16
-28z m-215 -1 c-8 -5 -19 -10 -25 -10 -5 0 -3 5 5 10 8 5 20 10 25 10 6 0 3
-5 -5 -10z m72 2 c-6 -5 -19 -17 -28 -28 -8 -10 -12 -12 -8 -4 12 26 26 40 38
40 7 0 7 -3 -2 -8z m278 -56 c0 -3 -4 -8 -10 -11 -5 -3 -10 -1 -10 4 0 6 5 11
10 11 6 0 10 -2 10 -4z m-90 -22 c0 -8 -5 -12 -10 -9 -6 4 -8 11 -5 16 9 14
15 11 15 -7z m134 1 c3 -8 1 -15 -4 -15 -6 0 -10 7 -10 15 0 8 2 15 4 15 2 0
6 -7 10 -15z m-432 -2 c-6 -2 -10 -9 -6 -14 3 -5 0 -9 -5 -9 -12 0 -14 13 -4
23 3 4 11 7 17 6 6 0 5 -3 -2 -6z m496 -15 c2 -10 10 -18 17 -18 9 0 13 -11
13 -29 l-1 -30 -19 24 c-10 13 -18 30 -18 39 0 9 -6 16 -14 16 -8 0 -17 4 -21
9 -3 6 4 9 16 8 12 -1 24 -9 27 -19z m146 -13 c-4 -10 -12 -25 -18 -32 -29
-32 -36 -43 -36 -52 0 -6 -7 -8 -15 -5 -16 6 -16 25 0 37 6 4 4 11 -5 17 -9 6
-10 10 -3 10 6 0 15 -4 18 -10 12 -19 20 -10 19 23 -1 27 2 32 22 32 19 0 23
-4 18 -20z m348 -2 c14 -16 38 -50 53 -78 l27 -50 -41 42 c-43 44 -51 47 -27
10 8 -12 17 -38 20 -57 6 -34 5 -34 -8 -11 -13 24 -14 24 -25 3 -14 -26 -14
-33 0 -29 6 1 13 -6 14 -15 5 -27 -13 -21 -29 10 -14 25 -15 26 -16 5 0 -23
-23 -32 -35 -13 -4 6 1 7 11 3 12 -4 15 -2 12 8 -3 8 -15 13 -29 11 -13 -2
-19 1 -14 5 11 9 17 28 17 60 0 13 4 20 9 18 17 -11 20 17 5 47 -18 35 -14 52
4 19 6 -12 17 -21 25 -21 19 0 19 14 0 30 -16 13 -20 30 -7 30 5 0 20 -12 34
-27z m-172 -36 c14 4 21 -1 26 -21 6 -27 24 -36 24 -13 1 16 39 -34 40 -52 0
-7 -6 -11 -15 -8 -8 4 -17 2 -20 -4 -4 -5 -11 -7 -16 -4 -5 4 -9 0 -10 -7 -1
-7 -4 -2 -8 12 -4 14 -14 24 -21 22 -7 -2 -19 6 -27 18 -8 11 -19 18 -24 15
-5 -4 -9 -2 -9 3 0 22 -37 -1 -47 -29 -6 -16 -16 -29 -23 -29 -7 0 -6 6 4 15
8 9 13 22 10 30 -8 19 -14 19 -31 -2 -10 -12 -12 -13 -8 -3 4 8 -2 5 -13 -7
-19 -22 -20 -22 -25 -3 -3 11 0 20 6 20 7 0 5 5 -3 10 -9 6 -10 10 -3 10 6 0
15 9 18 20 4 11 11 17 17 14 7 -4 8 2 3 17 -7 21 -6 22 8 11 10 -9 17 -9 22
-3 4 7 13 6 27 -2 17 -10 22 -9 31 5 10 16 13 14 30 -11 12 -20 23 -27 37 -24z
m-490 33 c0 -5 -5 -10 -11 -10 -5 0 -7 5 -4 10 3 6 8 10 11 10 2 0 4 -4 4 -10z
m140 -24 c0 -8 -4 -18 -10 -21 -5 -3 -10 3 -10 14 0 12 5 21 10 21 6 0 10 -6
10 -14z m609 -178 c-1 -42 -1 -42 -10 -13 -5 17 -7 36 -4 43 9 24 15 11 14
-30z m151 17 c0 -9 -7 -27 -16 -41 -14 -20 -15 -30 -5 -50 13 -30 14 -34 2
-34 -9 0 -25 58 -21 75 1 6 3 15 5 20 9 40 35 62 35 30z m-359 -18 c-10 -9
-11 -8 -5 6 3 10 9 15 12 12 3 -3 0 -11 -7 -18z m455 5 c-10 -2 -22 0 -28 6
-6 6 0 7 19 4 21 -5 23 -7 9 -10z m36 -36 c12 -18 9 -26 -8 -26 -10 0 -14 -6
-10 -15 10 -26 -3 -16 -19 15 -21 41 -19 53 8 44 12 -4 25 -12 29 -18z m-302
-1 c0 -8 -2 -15 -4 -15 -2 0 -6 7 -10 15 -3 8 -1 15 4 15 6 0 10 -7 10 -15z
m-150 -65 c0 -5 -5 -10 -11 -10 -5 0 -7 5 -4 10 3 6 8 10 11 10 2 0 4 -4 4
-10z m330 -47 c0 -21 -3 -24 -9 -14 -5 8 -7 20 -4 28 8 21 13 15 13 -14z m30
-54 c0 -11 -4 -17 -10 -14 -5 3 -10 15 -10 26 0 11 5 17 10 14 6 -3 10 -15 10
-26z m-112 -134 c40 -81 62 -158 61 -219 0 -28 -3 -45 -6 -38 -8 20 -58 42
-81 35 -12 -3 -44 6 -76 21 -30 14 -57 26 -60 26 -13 0 -5 -19 19 -44 29 -31
35 -72 9 -62 -9 3 -47 11 -84 17 -59 10 -71 9 -91 -5 -36 -25 -109 -19 -109 9
0 6 9 20 20 30 11 10 20 22 20 27 0 4 -9 8 -20 8 -26 0 -25 3 6 37 15 15 37
45 50 66 29 45 48 46 100 8 21 -16 55 -33 76 -39 35 -9 38 -8 87 37 49 45 53
61 21 75 -8 3 -3 4 13 1 22 -4 27 -2 27 14 0 23 -19 40 -57 50 -39 11 -38 44
2 51 26 5 31 2 36 -20 4 -14 20 -52 37 -85z m112 -110 c0 -25 -4 -45 -9 -45
-5 0 -12 -8 -14 -17 -3 -10 -5 7 -6 38 0 31 2 59 6 62 16 16 23 4 23 -38z
m-617 -91 c37 -3 67 -9 66 -13 0 -3 -14 -17 -30 -30 -26 -20 -44 -24 -124 -27
-79 -3 -94 -1 -99 13 -8 20 3 55 15 48 5 -4 19 1 31 10 13 8 34 13 48 11 14
-3 55 -8 93 -12z m676 -94 c0 -23 -1 -23 -9 -5 -5 11 -9 29 -9 40 -1 17 1 17
9 5 5 -8 9 -26 9 -40z m-1349 -10 c0 -13 -37 -13 -45 0 -3 6 -3 15 0 20 7 12
45 -5 45 -20z m1357 -52 c-3 -7 -5 -2 -5 12 0 14 2 19 5 13 2 -7 2 -19 0 -25z
m-287 -30 c0 -12 -7 -18 -21 -18 -17 0 -20 4 -15 23 3 12 6 29 6 37 1 22 30
-19 30 -42z m287 -20 c-3 -8 -6 -5 -6 6 -1 11 2 17 5 13 3 -3 4 -12 1 -19z
m203 -34 c0 -15 -6 -24 -15 -24 -15 0 -21 40 -9 53 12 11 24 -3 24 -29z m-110
6 c0 -18 -3 -19 -20 -10 -22 12 -18 30 6 30 8 0 14 -9 14 -20z m58 -8 c3 -19
-1 -23 -15 -20 -10 2 -19 14 -21 26 -3 19 1 23 15 20 10 -2 19 -14 21 -26z
m-257 -25 c-13 -13 -26 -3 -16 12 3 6 11 8 17 5 6 -4 6 -10 -1 -17z m-156
-259 c-14 -45 -46 -64 -107 -64 -32 0 -58 3 -58 6 0 9 67 62 90 72 8 4 30 7
48 7 30 1 33 -1 27 -21z m-988 -34 c-3 -3 -12 -4 -19 -1 -8 3 -5 6 6 6 11 1
17 -2 13 -5z m238 -304 c-3 -5 -12 -10 -18 -10 -7 0 -6 4 3 10 19 12 23 12 15
0z m105 -101 c0 -5 -11 -2 -25 7 -14 9 -25 21 -25 26 0 5 -4 6 -10 3 -5 -3
-10 -4 -10 -1 0 2 -3 13 -7 23 -5 13 5 8 35 -15 23 -19 42 -38 42 -43z m55
-29 c29 -19 29 -20 6 -20 -13 0 -21 3 -17 7 3 4 -4 13 -16 20 -13 7 -18 12
-13 13 6 0 24 -9 40 -20z m105 -39 c17 -5 21 -9 13 -14 -7 -5 -22 -3 -33 3
-11 6 -25 8 -30 5 -5 -3 -11 -1 -15 5 -7 11 26 12 65 1z"/>
<path d="M1090 2990 c0 -5 7 -10 15 -10 8 0 15 5 15 10 0 6 -7 10 -15 10 -8 0
-15 -4 -15 -10z"/>
<path d="M1211 2324 c0 -11 3 -14 6 -6 3 7 2 16 -1 19 -3 4 -6 -2 -5 -13z"/>
<path d="M1605 2210 c3 -5 13 -10 21 -10 8 0 12 5 9 10 -3 6 -13 10 -21 10 -8
0 -12 -4 -9 -10z"/>
<path d="M805 3143 c-7 -16 -16 -357 -9 -350 2 2 25 152 27 175 0 6 5 12 10
12 9 0 5 -84 -6 -145 -2 -11 -2 -14 0 -7 8 21 23 13 39 -20 14 -31 15 -23 11
112 -3 107 -2 129 4 85 5 -33 11 -66 14 -73 9 -24 22 -3 17 28 -3 22 0 30 10
30 11 0 15 -13 16 -46 2 -31 -1 -43 -9 -38 -13 8 -2 -35 13 -51 6 -6 7 -4 3 7
-4 10 0 24 9 33 11 11 14 25 9 43 -6 24 -5 26 11 13 9 -8 19 -11 23 -7 3 3 1
6 -5 6 -7 0 -12 15 -13 33 -1 30 -1 31 -9 7 -7 -23 -8 -21 -9 11 -1 20 -10 47
-20 60 l-19 24 5 -28 c3 -16 1 -27 -6 -27 -6 0 -10 3 -9 8 1 4 -4 20 -10 35
-14 34 -16 60 -3 52 5 -3 12 -1 16 5 3 5 -1 10 -9 10 -9 0 -16 5 -16 10 0 6
-18 10 -39 10 -27 0 -41 -5 -46 -17z m145 -127 c0 -8 -8 -13 -17 -11 -10 2
-20 4 -23 4 -7 2 23 21 33 21 4 0 7 -6 7 -14z"/>
<path d="M927 3144 c4 -11 8 -12 13 -4 3 6 14 8 22 5 9 -4 19 -2 22 3 3 5 -10
9 -29 10 -27 1 -33 -2 -28 -14z"/>
<path d="M2125 3150 c-3 -6 1 -7 9 -4 18 7 21 14 7 14 -6 0 -13 -4 -16 -10z"/>
<path d="M2241 3146 c-7 -8 -9 -21 -5 -27 4 -8 3 -9 -5 -5 -6 4 -14 0 -18 -10
-4 -10 -13 -25 -20 -34 -7 -8 -13 -19 -12 -24 0 -5 -5 -13 -13 -17 -10 -7 -10
-9 0 -9 7 0 2 -11 -13 -27 -14 -15 -25 -31 -25 -35 0 -4 -18 -17 -40 -28 -22
-11 -40 -24 -40 -29 0 -5 -3 -16 -6 -24 -8 -21 31 -57 61 -57 14 0 30 9 37 20
7 11 18 20 25 20 7 0 13 5 13 10 0 6 8 10 19 10 21 0 71 36 71 52 0 6 -8 4
-18 -5 -10 -10 -27 -17 -38 -16 -17 0 -17 1 3 9 27 11 47 78 40 132 -4 32 -2
38 14 38 10 0 19 5 19 11 0 5 5 7 11 4 14 -9 6 -170 -10 -189 -7 -9 -11 -21
-9 -27 2 -7 16 3 31 23 28 36 44 94 54 188 l5 56 -60 2 c-42 2 -63 -2 -71 -12z
m-1 -116 c0 -5 -4 -10 -10 -10 -5 0 -10 5 -10 10 0 6 5 10 10 10 6 0 10 -4 10
-10z m-156 -134 c-21 -15 -30 -14 -19 3 3 6 14 11 23 11 13 0 13 -2 -4 -14z"/>
<path d="M2500 3158 c0 -10 50 -130 95 -227 l47 -103 -17 -82 c-10 -44 -22
-91 -28 -103 -12 -27 -31 -31 -23 -5 4 10 0 26 -7 36 -12 16 -15 15 -30 -21
-9 -21 -21 -50 -27 -66 -11 -32 -58 -55 -72 -35 -9 12 -5 96 7 148 2 14 -5 -4
-16 -40 -29 -89 -33 -94 -60 -98 -13 -2 -27 -10 -32 -17 -4 -7 -37 -23 -75
-35 -37 -12 -81 -33 -99 -46 -17 -13 -34 -24 -36 -24 -7 0 -67 -53 -143 -126
-62 -58 -80 -94 -49 -94 11 0 12 -6 6 -22 -9 -27 5 -216 18 -232 5 -6 12 -40
15 -75 6 -57 4 -65 -14 -78 -31 -22 -26 -80 15 -167 44 -92 76 -126 121 -126
38 0 49 -17 83 -135 12 -38 25 -76 30 -83 10 -16 -132 -212 -154 -212 -29 0
-99 123 -96 170 1 26 -1 31 -9 20 -19 -29 -9 -66 35 -133 l46 -67 -36 -21 -36
-22 22 -23 c27 -29 64 -194 79 -354 6 -63 14 -232 18 -375 4 -143 11 -266 15
-273 7 -9 175 -12 788 -12 428 0 779 2 779 5 0 6 -50 79 -59 85 -4 3 -17 21
-30 40 -13 19 -35 45 -50 58 l-26 22 23 6 c12 4 22 10 22 15 0 12 -36 30 -44
22 -3 -3 -6 3 -6 14 0 11 25 43 59 75 88 82 111 98 142 98 l29 0 -1 408 c-1
224 -4 393 -9 376 -14 -62 -17 -65 -44 -53 -34 16 -42 39 -13 39 19 0 27 10
45 63 20 56 22 81 22 269 l0 207 -34 36 c-22 23 -39 54 -46 86 -7 28 -27 72
-44 98 l-32 47 43 94 c27 60 39 98 33 104 -14 14 -23 1 -50 -69 -33 -86 -50
-116 -59 -110 -5 2 6 53 25 111 19 59 31 110 28 115 -7 12 -24 1 -24 -16 0 -8
-14 -52 -31 -99 -24 -67 -35 -86 -50 -86 -27 0 -23 -13 10 -33 49 -29 131
-170 131 -225 0 -8 16 -32 35 -54 l36 -39 -32 -26 c-40 -34 -59 -79 -59 -142
0 -85 29 -131 81 -131 35 0 35 -3 8 -77 -12 -32 -26 -68 -30 -81 l-9 -22 -32
20 c-18 11 -43 20 -55 20 -13 0 -23 6 -23 14 0 8 -4 16 -9 18 -5 2 -13 15 -16
31 -8 32 4 35 60 11 20 -8 39 -13 42 -10 9 9 -39 28 -78 31 -52 4 -75 22 -56
44 19 21 28 60 16 67 -5 3 -14 -8 -20 -25 -6 -17 -14 -31 -17 -32 -4 -1 -58
-2 -120 -3 -99 -1 -113 1 -118 17 -9 29 -34 20 -34 -13 0 -16 -5 -30 -11 -30
-8 0 -10 12 -6 35 3 19 2 35 -4 35 -12 0 -49 -37 -49 -50 0 -5 -16 -10 -35
-10 -42 0 -48 17 -43 114 3 67 -5 87 -16 41 -4 -15 -14 -25 -24 -25 -9 0 -34
-3 -54 -6 -36 -6 -38 -5 -38 20 0 22 -10 31 -70 61 -38 19 -74 35 -79 35 -5 0
-7 -15 -4 -34 5 -33 4 -35 -31 -42 -36 -6 -164 2 -192 13 -18 7 -18 27 0 42 8
6 27 40 44 75 17 35 36 67 43 72 8 5 26 -9 52 -39 21 -26 45 -47 52 -47 33 0
119 56 109 71 -2 5 4 17 16 29 11 11 20 29 20 39 0 11 3 21 8 23 4 2 22 35 41
73 44 89 54 62 12 -32 -40 -91 -40 -95 -10 -103 25 -7 26 -6 27 39 1 50 21
114 29 93 3 -7 0 -19 -7 -27 -6 -8 -10 -35 -9 -62 3 -41 8 -51 37 -70 18 -13
36 -23 41 -23 4 0 18 26 31 58 13 31 38 83 56 114 18 31 29 60 26 64 -4 4 -1
4 6 0 8 -5 28 6 52 28 21 19 52 42 68 50 37 19 43 52 43 233 1 361 -123 664
-307 753 -62 31 -148 31 -221 2 l-53 -22 0 56 c0 46 4 59 23 75 l22 18 -56 1
c-62 0 -72 -5 -59 -29 5 -11 5 -23 -1 -32 -9 -12 -10 -12 -7 0 8 30 -33 55
-99 59 -35 3 -63 2 -63 0z m400 -305 c0 -5 11 -9 25 -9 28 -2 108 -61 99 -75
-3 -5 2 -9 12 -9 14 0 15 -2 3 -17 -12 -15 -12 -16 3 -11 22 9 30 -2 15 -20
-10 -13 -9 -15 6 -9 12 5 17 1 17 -13 0 -11 -3 -20 -6 -20 -3 0 -31 26 -62 59
-86 89 -151 105 -256 65 -14 -5 -17 -2 -14 16 2 16 14 27 38 36 39 14 120 18
120 7z m-112 -202 c20 -10 47 -30 60 -43 l22 -25 -52 -106 -53 -106 -26 23
c-19 16 -24 27 -18 42 5 12 8 14 8 4 2 -26 18 3 41 73 12 37 26 67 30 67 8 0
-9 -68 -32 -129 -17 -47 11 -8 42 57 l29 61 -30 26 c-17 14 -39 25 -50 25 -14
0 -19 7 -19 25 0 30 1 30 48 6z m-84 -116 c6 -63 5 -68 -8 -50 -15 22 -19 47
-17 110 2 59 17 24 25 -60z m422 -13 c11 -56 19 -104 16 -106 -2 -3 5 -2 17 1
12 3 22 14 22 27 2 21 2 21 6 0 5 -25 -13 -74 -26 -74 -18 0 -31 37 -43 119
-13 91 -18 104 -41 95 -15 -5 -22 -32 -56 -201 -5 -28 -5 -40 2 -36 6 4 8 0 4
-10 -3 -9 -2 -17 3 -19 13 -5 24 -58 12 -58 -6 0 -12 9 -14 20 -5 36 -23 27
-29 -15 -4 -24 -5 -13 -3 28 2 37 5 71 5 75 1 4 1 19 0 35 -1 31 -25 37 -40
10 -5 -10 -13 -15 -16 -11 -4 4 2 20 14 36 17 24 20 40 16 78 -5 45 -4 47 6
19 7 -16 17 -33 22 -37 7 -4 7 -11 -1 -20 -7 -8 -7 -19 -2 -28 13 -20 18 -11
30 49 11 60 48 133 64 128 6 -2 20 -49 32 -105z m-385 8 l-10 -55 1 55 c1 30
4 62 7 70 11 29 12 -13 2 -70z m-111 -12 c16 -30 17 -36 5 -32 -8 4 -15 13
-15 20 0 8 -6 17 -14 20 -18 7 -28 32 -20 46 7 11 14 3 44 -54z m-80 32 c0 -5
-5 -10 -11 -10 -5 0 -7 5 -4 10 3 6 8 10 11 10 2 0 4 -4 4 -10z m650 -55 c0
-14 -4 -25 -9 -25 -4 0 -6 11 -3 25 2 14 6 25 8 25 2 0 4 -11 4 -25z m-720
-31 c0 -8 -4 -12 -10 -9 -5 3 -10 10 -10 16 0 5 5 9 10 9 6 0 10 -7 10 -16z
m-142 -53 c-15 -6 -20 7 -12 31 l8 23 6 -25 c3 -14 2 -27 -2 -29z m602 -137
c17 -61 30 -122 29 -135 0 -13 -9 5 -19 41 -10 36 -27 100 -39 142 -21 78 -30
156 -10 93 5 -16 23 -80 39 -141z m-400 147 c0 -8 -43 -41 -55 -41 -3 0 0 9 7
19 7 11 16 17 20 15 4 -3 8 0 8 5 0 6 5 11 10 11 6 0 10 -4 10 -9z m59 -22 c3
-11 1 -12 -11 -1 -13 10 -15 8 -14 -18 1 -31 10 -39 20 -17 3 6 2 -7 -1 -31
-5 -35 -3 -41 10 -37 8 4 18 2 22 -4 3 -7 -2 -11 -14 -11 -11 0 -23 4 -26 10
-7 12 -75 10 -75 -2 0 -5 -5 -6 -12 -2 -7 5 -30 7 -51 5 -37 -2 -38 -1 -32 21
10 32 25 47 25 24 0 -12 5 -16 18 -12 9 3 29 8 45 12 15 3 27 12 27 20 0 18
41 65 54 61 5 -2 12 -10 15 -18z m-233 -9 c24 0 15 -15 -16 -27 -28 -11 -30
-10 -30 14 0 19 4 24 16 19 9 -3 22 -6 30 -6z m-69 -14 c-3 -7 -1 -18 4 -23 5
-5 4 -16 -3 -26 -12 -16 -14 -16 -26 4 -8 12 -9 18 -3 14 6 -3 11 2 11 13 0
18 8 32 18 32 2 0 2 -6 -1 -14z m598 -114 c16 -72 13 -104 -6 -69 -6 9 -14 15
-18 12 -5 -2 -11 5 -14 16 -4 16 -2 19 10 15 13 -5 14 -1 9 26 -26 128 -10
128 19 0z m-130 57 c23 -34 55 -57 55 -38 0 8 4 8 15 -1 9 -8 13 -21 9 -37 -4
-15 0 -30 11 -43 9 -10 15 -26 13 -36 -2 -12 -13 1 -32 37 -16 30 -47 72 -68
93 -37 37 -39 38 -53 20 -14 -18 -14 -18 -15 2 0 45 37 46 65 3z m75 5 c0 -8
-5 -12 -10 -9 -6 4 -8 11 -5 16 9 14 15 11 15 -7z m330 -245 c-9 -20 -10 -15
-5 25 3 27 6 83 7 125 2 68 3 66 5 -25 2 -56 -1 -111 -7 -125z m-1130 181 c0
-5 -5 -10 -11 -10 -5 0 -7 5 -4 10 3 6 8 10 11 10 2 0 4 -4 4 -10z m667 -25
c-1 -5 6 -9 16 -9 22 2 22 -10 0 -35 -13 -16 -20 -18 -36 -9 -16 8 -23 7 -31
-4 -14 -19 -56 -33 -56 -19 0 6 5 11 10 11 15 0 50 38 50 53 0 8 3 16 6 20 10
9 43 4 41 -8z m71 -26 c4 -40 -13 -30 -24 15 -5 22 -4 28 7 24 8 -2 15 -20 17
-39z m281 3 c0 -24 -1 -25 -9 -7 -12 28 -12 47 0 40 6 -3 10 -18 9 -33z m-474
-1 c-3 -6 -11 -11 -17 -11 -6 0 -6 6 2 15 14 17 26 13 15 -4z m30 -10 c-3 -6
-11 -11 -17 -11 -6 0 -6 6 2 15 14 17 26 13 15 -4z m344 -147 c-18 -22 -22
-11 -7 22 10 21 14 24 16 10 2 -9 -2 -24 -9 -32z m-159 -31 c13 -38 26 -72 31
-77 22 -24 8 -36 -43 -36 l-53 0 -3 41 c-3 46 5 82 18 74 4 -3 11 11 14 30 4
19 9 35 11 35 2 0 13 -30 25 -67z m357 -15 c-3 -8 -6 -5 -6 6 -1 11 2 17 5 13
3 -3 4 -12 1 -19z m-442 -68 c-5 -24 -12 -30 -32 -30 -23 0 -25 3 -19 33 4 17
11 34 16 35 6 2 10 11 10 20 0 13 4 11 16 -6 10 -15 13 -32 9 -52z m319 -22
c16 -22 21 -92 10 -122 -3 -9 -13 -16 -21 -16 -8 0 -11 -4 -8 -10 8 -13 -5
-13 -25 0 -13 8 -13 10 2 10 26 0 52 45 44 78 -4 15 -8 36 -9 46 -1 11 -8 21
-15 22 -7 1 -8 0 -2 -3 15 -7 12 -23 -4 -23 -12 0 -14 14 -7 38 3 9 22 -2 35
-20z m-209 -78 c-3 -5 -12 -10 -18 -10 -7 0 -6 4 3 10 19 12 23 12 15 0z m-55
-341 c10 -18 9 -20 -7 -17 -10 2 -19 11 -21 21 -5 24 15 21 28 -4z m259 -71
c1 -21 -3 -38 -9 -38 -5 0 -10 20 -10 45 0 44 -1 45 -32 44 -40 -1 -70 -11
-68 -24 1 -5 -3 -11 -8 -13 -5 -1 -7 11 -4 27 4 29 6 30 61 33 63 3 68 -2 70
-74z m359 -35 c16 -13 19 -25 15 -45 -7 -36 -21 -36 -25 -1 -2 17 -12 32 -26
39 -17 8 -20 13 -10 17 21 9 25 8 46 -10z m-638 -37 c0 -2 -7 -6 -15 -10 -8
-3 -15 -1 -15 4 0 6 7 10 15 10 8 0 15 -2 15 -4z m713 -23 c-7 -2 -19 -2 -25
0 -7 3 -2 5 12 5 14 0 19 -2 13 -5z m-703 -105 c0 -25 -3 -28 -35 -28 -42 0
-44 12 -7 49 30 31 42 25 42 -21z m330 -222 c0 -6 -7 -2 -15 8 -8 11 -15 25
-15 30 0 6 7 2 15 -8 8 -11 15 -25 15 -30z m50 -78 c0 -6 -9 1 -20 15 -11 14
-20 29 -20 34 1 11 40 -37 40 -49z m310 -173 c0 -8 -4 -15 -10 -15 -5 0 -7 7
-4 15 4 8 8 15 10 15 2 0 4 -7 4 -15z m0 -51 c0 -8 -4 -12 -10 -9 -5 3 -10 10
-10 16 0 5 5 9 10 9 6 0 10 -7 10 -16z m-677 -208 c15 -4 27 -13 27 -21 0 -14
-3 -14 -30 0 -16 8 -40 15 -55 15 -14 0 -25 4 -25 8 0 16 12 21 33 12 12 -5
34 -11 50 -14z m-40 -58 c9 -35 1 -63 -16 -62 -12 1 -13 -4 -7 -27 5 -16 6
-29 2 -29 -4 0 -16 -14 -27 -30 l-20 -30 -5 27 c-4 23 8 102 26 161 6 21 41
14 47 -10z m904 16 c-3 -3 -12 -4 -19 -1 -8 3 -5 6 6 6 11 1 17 -2 13 -5z
m-835 -33 c4 -3 10 -25 14 -48 6 -39 5 -43 -15 -43 -14 0 -22 8 -27 28 -3 15
-10 40 -15 55 -8 26 -7 28 14 21 12 -3 25 -9 29 -13z m23 -143 c2 -7 6 -30 10
-51 8 -48 -7 -42 -31 11 -10 20 -19 40 -21 45 -2 4 5 7 17 7 11 0 22 -6 25
-12z m-115 -42 c0 -3 -4 -8 -10 -11 -5 -3 -10 -1 -10 4 0 6 5 11 10 11 6 0 10
-2 10 -4z m0 -86 c0 -17 -26 -17 -27 1 -1 12 3 16 13 12 8 -3 14 -9 14 -13z
m110 -50 c0 -5 -4 -10 -10 -10 -5 0 -10 5 -10 10 0 6 5 10 10 10 6 0 10 -4 10
-10z"/>
<path d="M2700 429 c0 -5 5 -7 10 -4 6 3 10 8 10 11 0 2 -4 4 -10 4 -5 0 -10
-5 -10 -11z"/>
<path d="M2866 3145 c-3 -9 0 -15 9 -15 9 0 12 6 9 15 -4 8 -7 15 -9 15 -2 0
-5 -7 -9 -15z"/>
<path d="M2902 3140 c-7 -11 -19 -20 -26 -20 -8 0 -17 -3 -19 -7 -3 -5 30 -9
73 -11 68 -2 79 0 83 15 4 14 5 12 6 -4 0 -13 6 -23 11 -23 22 0 25 -2 32 -21
9 -23 24 -25 32 -3 4 9 -4 28 -19 46 -14 16 -25 33 -25 37 0 5 -30 9 -67 10
-59 1 -70 -1 -81 -19z"/>
<path d="M3095 3131 c20 -39 82 -89 127 -103 39 -12 117 2 148 27 8 6 38 20
65 30 28 10 68 27 90 39 22 11 49 24 60 27 14 5 7 7 -20 8 -22 0 -51 -6 -65
-14 -14 -8 -29 -14 -35 -14 -5 0 1 6 15 14 22 13 8 14 -139 15 -90 0 -161 -3
-158 -7 4 -3 2 -12 -3 -18 -8 -9 -2 -14 21 -19 20 -4 28 -10 23 -17 -5 -9 0
-10 14 -7 14 4 20 2 15 -5 -4 -6 2 -8 15 -5 15 4 22 2 22 -8 0 -21 -69 -18
-107 5 -17 11 -42 34 -54 50 -31 42 -56 43 -34 2z m299 -20 c3 -5 -1 -11 -9
-15 -9 -3 -15 0 -15 9 0 16 16 20 24 6z"/>
<path d="M3580 3113 c-19 -26 -45 -57 -58 -70 -32 -34 -41 -86 -48 -278 -5
-136 -3 -183 9 -236 31 -130 53 -173 140 -268 l82 -91 7 43 c11 70 9 152 -4
166 -11 11 -10 14 0 18 10 4 9 10 -6 27 -11 11 -36 50 -55 85 l-35 65 24 38
c25 40 30 53 15 44 -5 -4 -8 2 -7 11 4 24 23 28 29 6 4 -16 5 -16 5 2 1 11
-10 34 -24 50 -19 22 -24 25 -22 11 3 -18 -26 -46 -36 -35 -3 3 -10 41 -14 85
-10 91 -10 92 80 195 41 47 58 75 58 94 0 33 -24 54 -62 55 -25 0 -27 -3 -34
-67 -4 -38 -7 -76 -5 -85 3 -25 -12 -22 -39 7 -13 14 -26 23 -29 20 -2 -3 -4
-50 -2 -105 2 -103 -4 -119 -32 -76 -14 20 -15 38 -7 102 7 69 12 81 37 101
15 13 33 21 40 19 7 -3 15 12 21 37 5 23 13 50 17 60 13 32 -10 17 -45 -30z
m-55 -389 l25 -69 -25 30 -25 30 6 -60 c3 -33 15 -98 25 -144 11 -46 17 -86
15 -88 -7 -8 -35 90 -45 164 -11 72 -15 220 -6 212 2 -3 16 -36 30 -75z m105
-94 c0 -5 -5 -10 -11 -10 -5 0 -7 5 -4 10 3 6 8 10 11 10 2 0 4 -4 4 -10z"/>
<path d="M2784 3091 c3 -5 15 -7 26 -4 28 7 25 13 -6 13 -14 0 -23 -4 -20 -9z"/>
<path d="M3105 3049 c-9 -14 -2 -20 14 -10 8 6 9 11 3 15 -6 3 -14 1 -17 -5z"/>
<path d="M3388 3029 c-26 -23 -26 -26 -14 -71 12 -45 12 -49 -8 -61 -34 -23
-112 -59 -93 -44 17 14 16 15 -3 20 -11 3 -22 2 -25 -2 -5 -10 13 -79 23 -85
4 -3 27 4 50 14 23 11 42 16 42 13 0 -3 -15 -25 -34 -48 l-34 -41 16 -67 c9
-37 21 -67 28 -67 7 0 10 -8 7 -20 -4 -13 1 -26 13 -35 12 -9 14 -14 6 -15
-10 0 -12 -10 -9 -36 10 -69 54 -61 88 15 17 38 18 52 9 108 -6 35 -8 68 -5
74 4 5 1 9 -5 9 -13 0 -57 -48 -65 -72 -4 -10 -11 -18 -17 -18 -5 0 0 12 12
28 77 99 88 124 94 212 4 47 9 105 13 130 4 37 3 43 -8 33 -17 -17 -29 -16
-29 0 0 7 -6 21 -13 31 -13 17 -15 17 -39 -5z m62 -130 c0 -10 -4 -19 -10 -19
-5 0 -10 12 -10 26 0 14 4 23 10 19 6 -3 10 -15 10 -26z m-14 -291 c4 -7 3 -8
-4 -4 -8 5 -10 -5 -7 -31 4 -34 3 -36 -8 -16 -9 17 -16 19 -29 12 -14 -8 -18
-6 -18 6 0 8 3 14 8 14 21 -4 31 3 26 16 -7 18 21 21 32 3z m-26 -84 c0 -15
-28 -31 -41 -23 -11 7 -11 9 4 9 9 0 17 5 17 10 0 6 5 10 10 10 6 0 10 -3 10
-6z"/>
<path d="M3126 3022 c-2 -4 11 -25 30 -45 30 -32 38 -36 57 -27 18 9 19 8 6
-2 -26 -18 -5 -55 35 -60 29 -3 32 -1 34 24 2 22 -3 31 -23 38 -26 10 -34 22
-12 19 6 -1 23 3 37 10 23 11 23 11 2 7 -23 -4 -69 8 -114 30 -30 16 -45 18
-52 6z m154 -86 c0 -2 -3 -12 -6 -20 -5 -13 -9 -14 -20 -5 -20 16 -17 29 6 29
11 0 20 -2 20 -4z"/>
<path d="M1642 2878 c-15 -42 -8 -48 12 -9 18 34 19 41 8 41 -4 0 -13 -14 -20
-32z"/>
<path d="M3308 2893 c7 -3 16 -2 19 1 4 3 -2 6 -13 5 -11 0 -14 -3 -6 -6z"/>
<path d="M3700 2820 c-16 -39 -27 -45 -47 -28 -14 11 -16 11 -8 -2 22 -39 27
-41 51 -15 13 15 24 37 24 51 0 32 -5 30 -20 -6z"/>
<path d="M1670 2796 c0 -14 5 -28 10 -31 6 -4 10 7 10 24 0 17 -4 31 -10 31
-5 0 -10 -11 -10 -24z"/>
<path d="M3285 2760 c-3 -5 -1 -10 4 -10 6 0 11 5 11 10 0 6 -2 10 -4 10 -3 0
-8 -4 -11 -10z"/>
<path d="M1555 2717 c-4 -10 -5 -21 -1 -24 10 -10 18 4 13 24 -4 17 -4 17 -12
0z"/>
<path d="M1585 2640 c3 -5 8 -10 11 -10 2 0 4 5 4 10 0 6 -5 10 -11 10 -5 0
-7 -4 -4 -10z"/>
<path d="M3700 2610 c0 -5 5 -10 10 -10 6 0 10 5 10 10 0 6 -4 10 -10 10 -5 0
-10 -4 -10 -10z"/>
<path d="M3660 2591 c0 -11 31 -24 39 -16 3 3 -1 10 -9 15 -19 12 -30 12 -30
1z"/>
<path d="M3440 2453 c-27 -73 -57 -215 -66 -316 -6 -73 -9 -79 -33 -88 -59
-22 -96 -47 -151 -106 -53 -56 -130 -186 -130 -219 0 -24 -16 -23 -75 7 -59
30 -100 38 -93 18 2 -6 24 -19 50 -29 25 -9 62 -30 82 -45 26 -20 37 -24 40
-14 33 114 95 218 167 283 53 48 123 86 157 86 28 0 37 16 15 28 -16 9 -16 18
4 139 12 70 33 166 48 212 17 54 23 87 17 93 -6 6 -18 -11 -32 -49z"/>
<path d="M3386 2423 c-10 -10 -16 -12 -12 -5 4 6 2 12 -3 12 -14 0 -14 -97 -1
-105 6 -3 11 2 12 12 2 25 4 35 12 58 19 51 19 53 -8 28z"/>
<path d="M1640 2414 c0 -8 5 -12 10 -9 6 4 8 11 5 16 -9 14 -15 11 -15 -7z"/>
<path d="M1663 2348 c-15 -35 -4 -114 18 -134 10 -9 19 -12 19 -6 0 6 -6 12
-12 15 -9 2 -13 26 -12 75 0 40 0 72 -1 72 -1 0 -6 -10 -12 -22z"/>
<path d="M1682 2300 c0 -14 2 -19 5 -12 2 6 2 18 0 25 -3 6 -5 1 -5 -13z"/>
<path d="M3357 2303 c-4 -3 -7 -17 -7 -30 0 -33 24 -24 28 10 3 26 -7 35 -21
20z"/>
<path d="M3347 2153 c-6 -60 -4 -84 7 -72 7 8 13 139 6 139 -4 0 -10 -30 -13
-67z"/>
<path d="M1845 2177 c-4 -10 -5 -21 -1 -24 10 -10 18 4 13 24 -4 17 -4 17 -12
0z"/>
<path d="M3704 2025 c-3 -13 -2 -42 4 -62 10 -37 10 -36 11 25 1 65 -4 79 -15
37z"/>
<path d="M1642 1870 c0 -14 2 -19 5 -12 2 6 2 18 0 25 -3 6 -5 1 -5 -13z"/>
<path d="M3465 1770 c-18 -20 -18 -20 3 -20 17 0 22 -6 22 -25 0 -29 -8 -32
-26 -8 -17 25 -27 11 -28 -41 -2 -77 56 -112 103 -63 27 30 38 111 19 147 -18
33 -67 39 -93 10z"/>
<path d="M1862 1585 c0 -16 2 -22 5 -12 2 9 2 23 0 30 -3 6 -5 -1 -5 -18z"/>
<path d="M1884 1585 c9 -24 23 -83 35 -145 9 -44 9 -44 10 -10 1 43 -26 151
-41 165 -8 7 -9 4 -4 -10z"/>
<path d="M1872 1525 c0 -16 2 -22 5 -12 2 9 2 23 0 30 -3 6 -5 -1 -5 -18z"/>
<path d="M1882 1475 c-1 -11 3 -38 7 -60 7 -34 9 -35 9 -10 0 35 -15 101 -16
70z"/>
<path d="M3350 1475 c-7 -9 -10 -18 -7 -22 8 -7 37 15 37 28 0 14 -16 11 -30
-6z"/>
<path d="M1920 1366 c0 -13 7 -29 15 -36 13 -11 15 -8 15 18 0 17 -6 32 -15
36 -11 4 -15 -1 -15 -18z"/>
<path d="M2140 1334 c1 -13 29 -48 34 -43 2 2 -4 15 -15 28 -10 13 -19 19 -19
15z"/>
<path d="M313 1215 c-18 -8 -33 -15 -33 -17 0 -2 15 -4 33 -5 19 -1 42 5 57
17 l25 20 -25 -1 c-14 0 -40 -6 -57 -14z"/>
<path d="M1769 583 c-13 -16 -12 -17 4 -4 16 13 21 21 13 21 -2 0 -10 -8 -17
-17z"/>
<path d="M1700 473 c-25 -42 -47 -81 -49 -87 -4 -12 -73 -126 -76 -126 -1 0
-1 20 0 45 2 35 -2 45 -14 45 -12 0 -20 -16 -29 -53 -6 -29 -12 -60 -12 -70 0
-9 -3 -17 -7 -17 -5 0 -9 -12 -10 -27 -1 -16 -5 -63 -9 -106 -7 -79 -7 -79 17
-75 20 3 26 14 45 83 34 128 37 131 84 138 24 3 48 11 54 18 8 9 6 10 -9 5
-11 -4 -35 -10 -54 -13 l-33 -6 17 32 c9 18 19 30 22 27 8 -7 63 22 63 34 0
13 -27 13 -35 0 -9 -15 -25 -12 -25 5 0 8 4 15 8 15 4 0 14 17 21 38 7 20 28
63 47 96 19 32 33 63 32 67 -2 5 -23 -26 -48 -68z m-130 -244 c0 -5 -4 -9 -10
-9 -5 0 -10 7 -10 16 0 8 5 12 10 9 6 -3 10 -10 10 -16z m-10 -28 c0 -12 -20
-25 -27 -18 -7 7 6 27 18 27 5 0 9 -4 9 -9z m-15 -41 c3 -5 -1 -10 -9 -10 -9
0 -16 5 -16 10 0 6 4 10 9 10 6 0 13 -4 16 -10z m-5 -30 c0 -5 -4 -10 -10 -10
-5 0 -10 5 -10 10 0 6 5 10 10 10 6 0 10 -4 10 -10z"/>
<path d="M1786 385 c-11 -8 -15 -15 -9 -15 6 0 16 7 23 15 16 19 11 19 -14 0z"/>
<path d="M1558 363 c7 -3 16 -2 19 1 4 3 -2 6 -13 5 -11 0 -14 -3 -6 -6z"/>
<path d="M1735 360 c-3 -6 1 -7 9 -4 18 7 21 14 7 14 -6 0 -13 -4 -16 -10z"/>
<path d="M593 334 c21 -25 22 -38 2 -30 -22 8 -5 -21 34 -58 17 -17 31 -35 31
-43 0 -7 -14 -28 -31 -48 -23 -26 -26 -33 -13 -29 11 4 16 4 13 0 -4 -4 -17
-9 -29 -11 -23 -4 -63 -39 -54 -48 2 -2 -23 -7 -56 -10 -60 -5 -110 -27 -110
-49 0 -7 7 -5 18 4 35 31 127 33 101 2 -10 -12 -2 -14 46 -14 64 0 74 7 126
98 34 57 53 72 96 72 l28 1 -32 27 c-100 85 -186 153 -170 136z m63 -66 l29
-31 -37 28 c-39 28 -45 35 -30 35 5 0 21 -14 38 -32z"/>
<path d="M1934 268 l-19 -23 23 19 c21 18 27 26 19 26 -2 0 -12 -10 -23 -22z"/>
<path d="M7 225 c4 -39 15 -73 31 -97 27 -42 40 -51 21 -16 -7 13 -23 57 -36
98 l-23 75 7 -60z"/>
<path d="M91 253 c10 -25 13 -67 18 -205 1 -46 2 -48 31 -48 l30 0 -1 88 c0
48 -3 81 -6 75 -2 -7 -9 -13 -14 -13 -4 0 -6 7 -3 15 4 8 1 15 -5 15 -6 0 -11
11 -11 25 0 14 -7 28 -15 31 -8 4 -15 12 -15 19 0 8 -4 17 -10 20 -6 4 -6 -5
1 -22z"/>
<path d="M1419 268 c-7 -15 -6 -58 2 -58 5 0 9 14 9 30 0 25 -6 39 -11 28z"/>
<path d="M3668 222 c13 -17 28 -35 34 -39 7 -3 2 8 -10 25 -13 17 -28 35 -34
39 -7 3 -2 -8 10 -25z"/>
<path d="M1408 188 c-2 -7 -3 -38 -2 -68 3 -118 3 -119 24 -117 12 1 16 5 11
10 -5 5 -7 25 -4 43 4 21 0 40 -8 51 -8 9 -9 14 -3 10 7 -4 15 0 18 9 8 21 -2
54 -15 54 -6 0 -7 5 -4 10 3 6 2 10 -3 10 -6 0 -12 -6 -14 -12z"/>
<path d="M1630 140 c-35 -7 -35 -7 -5 -9 17 0 37 4 45 9 17 11 11 11 -40 0z"/>
<path d="M1829 133 c-13 -16 -12 -17 4 -4 16 13 21 21 13 21 -2 0 -10 -8 -17
-17z"/>
<path d="M1242 108 c-7 -7 -12 -18 -12 -26 0 -8 -5 -10 -12 -6 -7 4 -2 -7 11
-24 12 -18 26 -32 31 -32 14 0 60 65 60 83 0 20 -59 24 -78 5z"/>
<path d="M63 59 c-9 -11 -7 -19 8 -38 19 -24 22 -15 10 28 -5 19 -8 21 -18 10z"/>
<path d="M211 34 c0 -11 3 -14 6 -6 3 7 2 16 -1 19 -3 4 -6 -2 -5 -13z"/>
</g>
</svg>
